<svg xmlns="http://www.w3.org/2000/svg" width="340" height="200" viewBox="0 0 340 200"><style>* {
          font-family: Ubuntu, 'Lucida Grande', Arial, Helvetica, sans-serif
        }</style><rect x="1.5" y="1.5" rx="5" ry="5" height="98%" width="98%" stroke="#e4e2e2" stroke-width="1" fill="#ffffff" stroke-opacity="1"></rect><text x="30" y="40" style="font-size: 22px; fill: #586e75;">Top Languages by Commit</text><g transform="translate(0,40)"><g transform="translate(40,0)"><rect y="18" width="14" height="14" fill="#701516" stroke="#ffffff" style="stroke-width: 1px;"></rect><rect y="43.2" width="14" height="14" fill="#e34c26" stroke="#ffffff" style="stroke-width: 1px;"></rect><rect y="68.4" width="14" height="14" fill="#f1e05a" stroke="#ffffff" style="stroke-width: 1px;"></rect><rect y="93.60000000000002" width="14" height="14" fill="#563d7c" stroke="#ffffff" style="stroke-width: 1px;"></rect><rect y="118.80000000000001" width="14" height="14" fill="#2b7489" stroke="#ffffff" style="stroke-width: 1px;"></rect><text x="16.8" y="30" style="fill: #586e75; font-size: 14px;">Ruby</text><text x="16.8" y="55.2" style="fill: #586e75; font-size: 14px;">HTML</text><text x="16.8" y="80.4" style="fill: #586e75; font-size: 14px;">JavaScript</text><text x="16.8" y="105.60000000000002" style="fill: #586e75; font-size: 14px;">CSS</text><text x="16.8" y="130.8" style="fill: #586e75; font-size: 14px;">TypeScript</text></g><g transform="translate( 230, 80 )"><g class="arc"><path d="M3.67394039744206e-15,-60A60,60,0,1,1,-35.81274723168181,48.139870541160235L-20.890769218481054,28.081591149010137A35,35,0,1,0,2.1431318985078682e-15,-35Z" style="fill: #701516; stroke-width: 2px;" stroke="#ffffff"></path></g><g class="arc"><path d="M-35.81274723168181,48.139870541160235A60,60,0,0,1,-50.99554409027916,-31.614150042922134L-29.747400719329512,-18.441587525037914A35,35,0,0,0,-20.890769218481054,28.081591149010137Z" style="fill: #e34c26; stroke-width: 2px;" stroke="#ffffff"></path></g><g class="arc"><path d="M-50.99554409027916,-31.614150042922134A60,60,0,0,1,-19.930850831372275,-56.59294289165025L-11.626329651633828,-33.01255002012931A35,35,0,0,0,-29.747400719329512,-18.441587525037914Z" style="fill: #f1e05a; stroke-width: 2px;" stroke="#ffffff"></path></g><g class="arc"><path d="M-19.930850831372275,-56.59294289165025A60,60,0,0,1,-8.99568042774964,-59.32181498944382L-5.247480249520623,-34.60439207717557A35,35,0,0,0,-11.626329651633828,-33.01255002012931Z" style="fill: #563d7c; stroke-width: 2px;" stroke="#ffffff"></path></g><g class="arc"><path d="M-8.99568042774964,-59.32181498944382A60,60,0,0,1,-6.431252637433369e-14,-60L-3.7515640385027985e-14,-35A35,35,0,0,0,-5.247480249520623,-34.60439207717557Z" style="fill: #2b7489; stroke-width: 2px;" stroke="#ffffff"></path></g></g></g></svg>