<svg xmlns="http://www.w3.org/2000/svg" width="340" height="200" viewBox="0 0 340 200"><style>* {
          font-family: Ubuntu, 'Lucida Grande', Arial, Helvetica, sans-serif
        }</style><rect x="1.5" y="1.5" rx="5" ry="5" height="98%" width="98%" stroke="#e4e2e2" stroke-width="1" fill="#ffffff" stroke-opacity="1"></rect><text x="30" y="40" style="font-size: 22px; fill: #41b883;">Top Languages by Repo</text><g transform="translate(0,40)"><g transform="translate(40,0)"><rect y="18" width="14" height="14" fill="#701516" stroke="#ffffff" style="stroke-width: 1px;"></rect><rect y="43.2" width="14" height="14" fill="#f1e05a" stroke="#ffffff" style="stroke-width: 1px;"></rect><rect y="68.4" width="14" height="14" fill="#e34c26" stroke="#ffffff" style="stroke-width: 1px;"></rect><rect y="93.60000000000002" width="14" height="14" fill="#3572A5" stroke="#ffffff" style="stroke-width: 1px;"></rect><rect y="118.80000000000001" width="14" height="14" fill="#00B4AB" stroke="#ffffff" style="stroke-width: 1px;"></rect><text x="16.8" y="30" style="fill: #000000; font-size: 14px;">Ruby</text><text x="16.8" y="55.2" style="fill: #000000; font-size: 14px;">JavaScript</text><text x="16.8" y="80.4" style="fill: #000000; font-size: 14px;">HTML</text><text x="16.8" y="105.60000000000002" style="fill: #000000; font-size: 14px;">Python</text><text x="16.8" y="130.8" style="fill: #000000; font-size: 14px;">Dart</text></g><g transform="translate( 230, 80 )"><g class="arc"><path d="M3.67394039744206e-15,-60A60,60,0,0,1,13.541422759272644,58.45194496040874L7.899163276242375,34.096967893571765A35,35,0,0,0,2.1431318985078682e-15,-35Z" style="fill: #701516; stroke-width: 2px;" stroke="#ffffff"></path></g><g class="arc"><path d="M13.541422759272644,58.45194496040874A60,60,0,0,1,-49.018193580626516,34.60081932689203L-28.59394625536547,20.183811274020353A35,35,0,0,0,7.899163276242375,34.096967893571765Z" style="fill: #f1e05a; stroke-width: 2px;" stroke="#ffffff"></path></g><g class="arc"><path d="M-49.018193580626516,34.60081932689203A60,60,0,0,1,-57.39158061596009,-17.498756367289506L-33.47842202597672,-10.207607880918879A35,35,0,0,0,-28.59394625536547,20.183811274020353Z" style="fill: #e34c26; stroke-width: 2px;" stroke="#ffffff"></path></g><g class="arc"><path d="M-57.39158061596009,-17.498756367289506A60,60,0,0,1,-26.384083260354366,-53.887662321821765L-15.390715235206713,-31.43446968772936A35,35,0,0,0,-33.47842202597672,-10.207607880918879Z" style="fill: #3572A5; stroke-width: 2px;" stroke="#ffffff"></path></g><g class="arc"><path d="M-26.384083260354366,-53.887662321821765A60,60,0,0,1,-1.1021821192326178e-14,-60L-6.429395695523604e-15,-35A35,35,0,0,0,-15.390715235206713,-31.43446968772936Z" style="fill: #00B4AB; stroke-width: 2px;" stroke="#ffffff"></path></g></g></g></svg>